<svg xmlns="http://www.w3.org/2000/svg" xmlns:xlink="http://www.w3.org/1999/xlink" width="500" zoomAndPan="magnify" viewBox="0 0 375 374.999991" height="500" preserveAspectRatio="xMidYMid meet" version="1.0"><defs><clipPath id="7a4c7733e6"><path d="M 6 12 L 366 12 L 366 370.535156 L 6 370.535156 Z M 6 12 " clip-rule="nonzero"/></clipPath></defs><g clip-path="url(#7a4c7733e6)"><path fill="#f9cfac" d="M 359.496094 226.703125 L 251.070312 340.128906 C 231.5625 359.621094 205.113281 370.574219 177.535156 370.574219 L 157.066406 370.574219 C 104.425781 370.574219 61.742188 327.914062 61.742188 275.300781 C 61.742188 249.941406 55.066406 225.042969 42.382812 203.085938 L 9.960938 146.953125 C 5 138.363281 6.171875 127.839844 12.25 120.589844 C 22.453125 108.386719 41.894531 109.863281 49.988281 123.859375 C 97.175781 205.550781 42.535156 110.949219 96.160156 203.792969 C 59.214844 65.972656 59.375 70.015625 60.679688 62.542969 C 60.679688 61.796875 61.621094 58.0625 62.921875 55.457031 C 73.566406 33.605469 105.28125 37.035156 111.449219 60.027344 C 113.375 67.210938 143.652344 180.171875 145.511719 187.101562 C 145.511719 29.71875 145.398438 37.671875 145.71875 35.253906 C 147.523438 21.765625 159.292969 12.609375 170.171875 12.609375 C 185.230469 11.878906 197.503906 23.84375 197.503906 38.558594 L 197.503906 191.574219 C 240.964844 40.046875 237.359375 50.671875 240.570312 45.777344 C 247.332031 35.066406 262.628906 30.574219 274.816406 37.40625 C 284.488281 42.253906 290.601562 54.714844 287.347656 66.867188 L 249.496094 208.058594 L 249.496094 238.753906 C 249.496094 249.050781 261.9375 254.203125 269.214844 246.925781 C 304.164062 206.488281 301.042969 209.996094 302.714844 208.4375 C 320.800781 191.683594 345.390625 189.21875 353.523438 193.285156 C 366.375 198.804688 370.273438 215.925781 359.496094 226.703125 Z M 359.496094 226.703125 " fill-opacity="1" fill-rule="nonzero"/></g><path fill="#ffe4cc" d="M 364.355469 204.558594 L 240.425781 333.125 C 224.851562 346.816406 205.578125 355.515625 185.109375 358.160156 C 120.609375 366.539062 73.296875 318.773438 73.296875 263.75 C 73.296875 238.394531 66.621094 213.492188 53.9375 191.535156 C 10.203125 117.1875 12.738281 121.546875 12.25 120.589844 C 17.9375 113.789062 27.191406 110.6875 36.113281 113.140625 C 41.121094 114.511719 43.992188 116.800781 47.246094 120.050781 C 71.789062 161.136719 96.234375 203.792969 96.160156 203.792969 C 102.355469 203.792969 106.863281 197.921875 105.261719 191.941406 C 70.765625 63.269531 72.394531 71.265625 72.628906 65.710938 C 72.828125 57.585938 77.578125 48.933594 85.328125 44.410156 C 88.582031 42.503906 92.191406 41.507812 92.488281 41.503906 C 101.410156 43.679688 108.902344 50.535156 111.449219 60.027344 C 114.84375 72.691406 141.839844 173.40625 145.511719 187.101562 C 145.511719 24.128906 145.335938 37.371094 145.917969 33.960938 C 146.617188 30.058594 148.257812 26.390625 150.140625 23.753906 C 152.375 20.496094 155.382812 18.121094 155.457031 18.121094 C 173.078125 4.53125 197.503906 17.417969 197.503906 38.558594 L 197.503906 191.574219 C 239.664062 44.574219 237.40625 52.304688 237.796875 51.289062 C 243.953125 33.757812 267.457031 27.617188 281.433594 42.625 C 282.324219 43.628906 285.421875 30.328125 237.941406 210.222656 L 237.941406 240.921875 C 237.941406 249.753906 247.800781 258.28125 259.191406 253.847656 C 266.84375 250.871094 271.132812 244.707031 277 237.917969 C 303.398438 207.382812 300.242188 210.972656 302.074219 209.046875 C 309.761719 201.617188 319.785156 195.839844 331.273438 193.183594 C 336.113281 192.078125 343.761719 191.09375 348.449219 191.8125 C 354.804688 192.792969 360.042969 196.632812 363.011719 201.773438 C 363.832031 203.148438 364.320312 204.488281 364.355469 204.558594 Z M 364.355469 204.558594 " fill-opacity="1" fill-rule="nonzero"/><path fill="#f9cfac" d="M 168.617188 340.980469 C 165.425781 340.980469 162.839844 338.394531 162.839844 335.207031 C 162.839844 289.082031 197.28125 249.71875 242.953125 243.632812 C 246.125 243.21875 249.023438 245.4375 249.445312 248.597656 C 249.863281 251.757812 247.640625 254.660156 244.480469 255.082031 C 204.527344 260.402344 174.394531 294.847656 174.394531 335.207031 C 174.394531 338.394531 171.808594 340.980469 168.617188 340.980469 Z M 168.617188 340.980469 " fill-opacity="1" fill-rule="nonzero"/></svg>